<svg xmlns="http://www.w3.org/2000/svg" viewBox="0 0 78.04 78.04"><defs><style>.cls-1{fill:none;stroke:#1fb0c1;stroke-miterlimit:10;}.cls-2{fill:#1fb0c1;}</style></defs><title>Ativo 18</title><g id="Camada_2" data-name="Camada 2"><g id="Camada_1-2" data-name="Camada 1"><circle class="cls-1" cx="39.02" cy="39.02" r="38.52"/><path class="cls-2" d="M37.2,59.59V54.2A15.68,15.68,0,0,1,29,51.85l1.28-3.58a14.28,14.28,0,0,0,7.7,2.3c3.79,0,6.35-2.2,6.35-5.24s-2.08-4.75-6-6.36c-5.45-2.13-8.82-4.59-8.82-9.24,0-4.43,3.15-7.8,8.07-8.6v-5.4h3.31v5.19a14.12,14.12,0,0,1,6.94,1.87L46.5,26.31a12.92,12.92,0,0,0-6.73-1.81c-4.12,0-5.66,2.45-5.66,4.59,0,2.78,2,4.17,6.62,6.09C46.23,37.42,49,40.2,49,45c0,4.22-2.94,8.17-8.44,9.08v5.55Z"/></g></g></svg>