<svg xmlns="http://www.w3.org/2000/svg" viewBox="0 0 78.04 78.04"><defs><style>.cls-1{fill:#1fb0c1;}</style></defs><title>Ativo 16</title><g id="Camada_2" data-name="Camada 2"><g id="Camada_1-2" data-name="Camada 1"><path class="cls-1" d="M39,78A39,39,0,1,1,78,39,39.06,39.06,0,0,1,39,78ZM39,1A38,38,0,1,0,77,39,38.07,38.07,0,0,0,39,1Z"/><path class="cls-1" d="M48.55,60.4H29.49a5.12,5.12,0,0,1-5.11-5.12V36.23a5.12,5.12,0,0,1,5.11-5.12H48.55a5.12,5.12,0,0,1,5.11,5.12V55.28A5.12,5.12,0,0,1,48.55,60.4ZM29.49,32.11a4.12,4.12,0,0,0-4.11,4.12V55.28a4.12,4.12,0,0,0,4.11,4.12H48.55a4.12,4.12,0,0,0,4.11-4.12V36.23a4.12,4.12,0,0,0-4.11-4.12Z"/><path class="cls-1" d="M49.08,32.11H44.54V24.27a5.08,5.08,0,0,0-10.16,0v7.84H29.85V24.27a9.62,9.62,0,0,1,19.23,0Zm-3.54-1h2.54V24.27a8.62,8.62,0,0,0-17.23,0v6.84h2.53V24.27a6.08,6.08,0,0,1,12.16,0Z"/><path class="cls-1" d="M43.46,53.74H34.58l2.14-10.16-1-1.64a2.45,2.45,0,0,1,.64-3.27,4.5,4.5,0,0,1,5.38,0,2.41,2.41,0,0,1,.62,3.26l-1,1.57Zm-7.64-1h6.4l-2-9.44,1.23-1.91a1.42,1.42,0,0,0-.4-1.93,3.48,3.48,0,0,0-4.14,0,1.43,1.43,0,0,0-.41,1.95l1.24,2Z"/></g></g></svg>