<svg xmlns="http://www.w3.org/2000/svg" viewBox="0 0 78.04 78.04"><defs><style>.cls-1{fill:none;stroke:#1fb0c1;stroke-miterlimit:10;}.cls-2{fill:#1fb0c1;}</style></defs><title>Ativo 15</title><g id="Camada_2" data-name="Camada 2"><g id="Camada_1-2" data-name="Camada 1"><circle class="cls-1" cx="39.02" cy="39.02" r="38.52"/><path class="cls-2" d="M39,62.64A23.62,23.62,0,1,1,62.64,39,23.65,23.65,0,0,1,39,62.64ZM39,16A23,23,0,1,0,62,39,23,23,0,0,0,39,16Z"/><path class="cls-2" d="M39,54.57c-13,0-23.62-7-23.62-15.55S26,23.47,39,23.47s23.62,7,23.62,15.55S52,54.57,39,54.57Zm0-30.49c-12.69,0-23,6.7-23,14.94S26.33,54,39,54,62,47.26,62,39,51.71,24.08,39,24.08Z"/><path class="cls-2" d="M39,47.16C25.78,47.16,15.4,43.59,15.4,39S25.78,30.88,39,30.88,62.64,34.45,62.64,39,52.26,47.16,39,47.16Zm0-15.68c-12.48,0-23,3.45-23,7.54s10.53,7.54,23,7.54S62,43.11,62,39,51.5,31.48,39,31.48Z"/><path class="cls-2" d="M39,41.93c-9.49,0-23.62-.77-23.62-2.91S29.53,36.11,39,36.11s23.62.77,23.62,2.91S48.51,41.93,39,41.93Zm0-5.22c-15.16,0-22.93,1.48-23,2.31.09.83,7.85,2.31,23,2.31S61.94,39.85,62,39C61.94,38.19,54.18,36.71,39,36.71Z"/><path class="cls-2" d="M39,62.64C30.45,62.64,23.47,52,23.47,39S30.45,15.4,39,15.4,54.57,26,54.57,39,47.59,62.64,39,62.64ZM39,16c-8.24,0-15,10.32-15,23s6.71,23,15,23S54,51.71,54,39,47.26,16,39,16Z"/><path class="cls-2" d="M39,62.64c-4.57,0-8.14-10.38-8.14-23.62S34.45,15.4,39,15.4,47.16,25.78,47.16,39,43.59,62.64,39,62.64ZM39,16c-4.09,0-7.54,10.53-7.54,23S34.93,62,39,62s7.54-10.53,7.54-23S43.1,16,39,16Z"/><path class="cls-2" d="M39,62.64c-2.14,0-2.91-14.13-2.91-23.62S36.88,15.4,39,15.4,41.93,29.53,41.93,39,41.16,62.64,39,62.64ZM39,16c-.83.09-2.31,7.85-2.31,23S38.19,61.94,39,62c.83-.09,2.31-7.85,2.31-23S39.85,16.1,39,16Z"/></g></g></svg>