<svg xmlns="http://www.w3.org/2000/svg" viewBox="0 0 78.04 78.04"><defs><style>.cls-1{fill:#1fb0c1;}.cls-2{fill:#fff;}</style></defs><title>Ativo 17</title><g id="Camada_2" data-name="Camada 2"><g id="Camada_1-2" data-name="Camada 1"><path class="cls-1" d="M39,78A39,39,0,1,1,78,39,39.06,39.06,0,0,1,39,78ZM39,1A38,38,0,1,0,77,39,38.07,38.07,0,0,0,39,1Z"/><path class="cls-1" d="M53.42,50.56H19.07a2.72,2.72,0,0,1-2.71-2.71V22.75A2.72,2.72,0,0,1,19.07,20H53.42a2.72,2.72,0,0,1,2.71,2.71v25.1A2.72,2.72,0,0,1,53.42,50.56ZM19.07,21a1.72,1.72,0,0,0-1.71,1.71v25.1a1.72,1.72,0,0,0,1.71,1.71H53.42a1.72,1.72,0,0,0,1.71-1.71V22.75A1.72,1.72,0,0,0,53.42,21Z"/><path class="cls-1" d="M39.88,56H33.27V49.56h6.61Zm-5.61-1h4.61V50.56H34.27Z"/><path class="cls-1" d="M44.33,57.76H29.42V56.62A1.65,1.65,0,0,1,31.06,55H42.7a1.64,1.64,0,0,1,1.63,1.64Zm-13.91-1H43.33v-.14A.64.64,0,0,0,42.7,56H31.06a.64.64,0,0,0-.64.64Z"/><rect class="cls-2" x="36.92" y="42.08" width="24.23" height="15.78" rx="1.52"/><path class="cls-1" d="M59.64,58.36H38.44a2,2,0,0,1-2-2V43.6a2,2,0,0,1,2-2h21.2a2,2,0,0,1,2,2V56.34A2,2,0,0,1,59.64,58.36ZM38.44,42.58a1,1,0,0,0-1,1V56.34a1,1,0,0,0,1,1h21.2a1,1,0,0,0,1-1V43.6a1,1,0,0,0-1-1Z"/><rect class="cls-2" x="19.31" y="42.08" width="8.23" height="15.78" rx="1.08"/><path class="cls-1" d="M26.46,58.36H20.39a1.58,1.58,0,0,1-1.58-1.58V43.16a1.58,1.58,0,0,1,1.58-1.58h6.07A1.58,1.58,0,0,1,28,43.16V56.78A1.58,1.58,0,0,1,26.46,58.36ZM20.39,42.58a.58.58,0,0,0-.58.58V56.78a.58.58,0,0,0,.58.58h6.07a.58.58,0,0,0,.58-.58V43.16a.58.58,0,0,0-.58-.58Z"/></g></g></svg>