<svg xmlns="http://www.w3.org/2000/svg" viewBox="0 0 81.96 81.96"><defs><style>.cls-1{fill:#1fb0c1;stroke:#fff;stroke-miterlimit:10;}.cls-2{fill:#fff;}</style></defs><title>Ativo 5</title><g id="Camada_2" data-name="Camada 2"><g id="Camada_1-2" data-name="Camada 1"><circle class="cls-1" cx="40.98" cy="40.98" r="40.48"/><path class="cls-2" d="M43.89,53.86H23.44a1.8,1.8,0,0,1-1.8-1.8v-.55a.5.5,0,0,1,1,0v.55a.8.8,0,0,0,.8.8H43.89a.8.8,0,0,0,.8-.8V42.4a.5.5,0,0,1,.5-.5.5.5,0,0,1,.5.5v9.66A1.81,1.81,0,0,1,43.89,53.86Z"/><path class="cls-2" d="M22.14,46.2a.5.5,0,0,1-.5-.5V11.06a1.8,1.8,0,0,1,1.8-1.8H43.89a1.81,1.81,0,0,1,1.8,1.8v22a.5.5,0,0,1-.5.5.5.5,0,0,1-.5-.5v-22a.8.8,0,0,0-.8-.8H23.44a.8.8,0,0,0-.8.8V45.7A.5.5,0,0,1,22.14,46.2Z"/><path class="cls-2" d="M37.93,13.35H29.45V11.29a.5.5,0,1,1,1,0v1.06h6.48V11.29a.5.5,0,0,1,.5-.5.5.5,0,0,1,.5.5Z"/><path class="cls-2" d="M61.38,67a.51.51,0,0,1-.24-.07c-.09,0-2-1.23-3.85-6.81a31.42,31.42,0,0,1-.94-6.67A31.73,31.73,0,0,0,55.2,46c-2.08-5.65-6.7-10.68-7.32-11.34-2.14-.9-7.8-3-9.83-2.37-1.14.34-3.15,2.26-2.95,3,.34,1.22,4.68,2.92,7.64,3.74l.15,0,4.85,5.53a.5.5,0,0,1-.76.66l-4.65-5.31c-1.56-.44-7.6-2.27-8.19-4.39-.45-1.63,2.38-3.87,3.63-4.25,2.83-.85,10.28,2.31,10.6,2.45l.16.11a38.62,38.62,0,0,1,7.61,11.77,31.3,31.3,0,0,1,1.2,7.76,32.24,32.24,0,0,0,.9,6.45c1.66,5.12,3.39,6.24,3.4,6.25a.5.5,0,0,1-.26.93Z"/><path class="cls-2" d="M47.05,74.93a.49.49,0,0,1-.46-.31s-.79-1.78-4-5C39.08,66.19,26.3,53.86,26.17,53.73a.48.48,0,0,1,0-.7.49.49,0,0,1,.7,0c.13.13,12.92,12.46,16.4,15.9s4.22,5.25,4.25,5.33a.49.49,0,0,1-.27.65A.41.41,0,0,1,47.05,74.93Z"/><path class="cls-2" d="M22,27.12a.49.49,0,0,1-.3-.1c-.34-.25-3.34-2.53-3.58-4.45-.11-.9.32-3.32,1.42-3.77a6,6,0,0,1,2.55-.08.5.5,0,0,1,.4.58.49.49,0,0,1-.57.41,5,5,0,0,0-2,0c-.41.17-.91,1.87-.81,2.72.16,1.27,2.36,3.15,3.19,3.77a.5.5,0,0,1,.1.7A.51.51,0,0,1,22,27.12Z"/><path class="cls-2" d="M22,34.34a.43.43,0,0,1-.19,0c-.53-.21-3.18-1.34-3.68-2.37a4.73,4.73,0,0,1,.43-3.87c.58-.72,2.72-1.09,3.37-1.19a.5.5,0,0,1,.57.41.52.52,0,0,1-.42.58,7.12,7.12,0,0,0-2.74.83,4,4,0,0,0-.31,2.8c.22.46,1.81,1.33,3.16,1.89a.5.5,0,0,1-.19,1Z"/><path class="cls-2" d="M21.4,43.32h-.07A4.5,4.5,0,0,1,18,40.8a5.87,5.87,0,0,1,.19-4.17c.75-1.19,3.47-1.66,3.77-1.71a.5.5,0,0,1,.58.41.52.52,0,0,1-.42.58c-1.06.17-2.72.67-3.08,1.25a5.33,5.33,0,0,0-.17,3.15,3.62,3.62,0,0,0,2.58,2,3.55,3.55,0,0,1,.33-.2.49.49,0,0,1,.68.15.5.5,0,0,1-.15.69A1.82,1.82,0,0,1,21.4,43.32Z"/><path class="cls-2" d="M22.72,51.56h0c-1,0-3.38-.16-3.93-1.07-.79-1.28,0-4.67,1.31-5.49h0c.91-.58,3.19.29,4.12.7l.16.07.08.14a5.14,5.14,0,0,1,.6,3.45,3.09,3.09,0,0,1-2.24,2.2Zm-2.13-5.73c-.83.53-1.51,3.31-1,4.13.18.28,1.62.56,3,.59a2.07,2.07,0,0,0,1.42-1.49,4,4,0,0,0-.43-2.52,6.27,6.27,0,0,0-3-.71Z"/></g></g></svg>