<svg xmlns="http://www.w3.org/2000/svg" viewBox="0 0 75.7 75.7"><defs><style>.cls-1{fill:#1fb0c1;}.cls-2{fill:#fff;}</style></defs><title>Ativo 11</title><g id="Camada_2" data-name="Camada 2"><g id="Camada_1-2" data-name="Camada 1"><circle class="cls-1" cx="37.85" cy="37.85" r="37.85"/><path class="cls-2" d="M59.86,51.94H16.66a3,3,0,0,1-3-3V25.16a3,3,0,0,1,3-3h43.2a3,3,0,0,1,3,3V48.92A3,3,0,0,1,59.86,51.94Zm-43.2-28.8a2,2,0,0,0-2,2V48.92a2,2,0,0,0,2,2h43.2a2,2,0,0,0,2-2V25.16a2,2,0,0,0-2-2Z"/><rect class="cls-2" x="14.14" y="27.92" width="48.24" height="6"/><rect class="cls-2" x="43.58" y="42.18" width="17.04" height="17.04" rx="2.08"/><path class="cls-2" d="M56.75,42.18h-1V40.62a3.46,3.46,0,0,0-3.45-3.46h-.39a3.46,3.46,0,0,0-3.46,3.46v1.56h-1V40.62a4.46,4.46,0,0,1,4.46-4.46h.39a4.46,4.46,0,0,1,4.45,4.46Z"/><path class="cls-1" d="M54.28,55.1H50.2l1.1-6.42-.61-1.2A1.48,1.48,0,0,1,51,45.76h0a1.82,1.82,0,0,1,2.54,0h0a1.44,1.44,0,0,1,.27,1.71l-.59,1.15Z"/><path class="cls-2" d="M28.81,39.5H17.56a.5.5,0,0,1,0-1H28.81a.5.5,0,1,1,0,1Z"/><path class="cls-2" d="M38.85,42.68H17.56a.51.51,0,0,1-.5-.5.5.5,0,0,1,.5-.5H38.85a.5.5,0,0,1,.5.5A.51.51,0,0,1,38.85,42.68Z"/><path class="cls-2" d="M32.68,39.5H30.93a.5.5,0,0,1,0-1h1.75a.5.5,0,1,1,0,1Z"/><path class="cls-2" d="M37,39.5H34.53a.5.5,0,0,1,0-1H37a.5.5,0,0,1,0,1Z"/><path class="cls-2" d="M41.59,39.5H38.67a.5.5,0,0,1,0-1h2.92a.5.5,0,0,1,0,1Z"/></g></g></svg>