<svg xmlns="http://www.w3.org/2000/svg" viewBox="0 0 81.96 81.96"><defs><style>.cls-1,.cls-3{fill:#fff;}.cls-1{stroke:#1fb0c1;stroke-miterlimit:10;}.cls-2{fill:#1fb0c1;}</style></defs><title>Ativo 3</title><g id="Camada_2" data-name="Camada 2"><g id="Camada_1-2" data-name="Camada 1"><circle class="cls-1" cx="40.98" cy="40.98" r="40.48"/><path class="cls-2" d="M52.39,43.77H37.5a1.31,1.31,0,0,1-1.31-1.31v-.4a.37.37,0,0,1,.73,0v.4a.58.58,0,0,0,.58.58H52.39a.58.58,0,0,0,.58-.58v-7a.37.37,0,0,1,.37-.36.36.36,0,0,1,.36.36v7A1.31,1.31,0,0,1,52.39,43.77Z"/><path class="cls-2" d="M36.55,38.19a.36.36,0,0,1-.36-.36V12.6a1.31,1.31,0,0,1,1.31-1.31H52.39A1.31,1.31,0,0,1,53.7,12.6V29a.36.36,0,0,1-.36.36A.37.37,0,0,1,53,29V12.6a.58.58,0,0,0-.58-.58H37.5a.58.58,0,0,0-.58.58V37.83A.36.36,0,0,1,36.55,38.19Z"/><path class="cls-2" d="M48.05,14.27H41.88v-1.5a.37.37,0,0,1,.36-.37.38.38,0,0,1,.37.37v.77h4.71v-.77a.37.37,0,1,1,.73,0Z"/><path class="cls-2" d="M62.15,48.34a22.79,22.79,0,0,1-.68-4.85A23.05,23.05,0,0,0,60.63,38a28.05,28.05,0,0,0-5.33-8.26c-1.56-.65-5.68-2.16-7.16-1.72-.83.25-2.3,1.65-2.14,2.2.24.88,3.4,2.12,5.56,2.72l.1,0,3.53,4a.35.35,0,0,1,0,.51.36.36,0,0,1-.51,0l-3.39-3.87c-1.14-.32-5.54-1.65-6-3.2C45,29.25,47,27.61,47.93,27.34c2.07-.62,7.49,1.69,7.72,1.78l.12.09a28.16,28.16,0,0,1,5.54,8.56,23,23,0,0,1,.88,5.66,22.17,22.17,0,0,0,.66,4.69"/><path class="cls-2" d="M57.14,62.92a.36.36,0,0,1-.31-.18,46.91,46.91,0,0,0-5.41-7.49c-2.53-2.5-11.84-11.48-11.93-11.57a.36.36,0,0,1,.5-.53c.1.09,9.41,9.08,11.94,11.58a47.12,47.12,0,0,1,5.53,7.64.37.37,0,0,1-.13.5A.32.32,0,0,1,57.14,62.92Z"/><path class="cls-2" d="M36.48,24.3a.35.35,0,0,1-.22-.08C36,24,33.83,22.38,33.65,21c-.08-.65.23-2.42,1-2.74a4.41,4.41,0,0,1,1.86-.06.37.37,0,0,1-.12.72,3.41,3.41,0,0,0-1.46,0c-.3.12-.66,1.35-.59,2,.12.93,1.72,2.3,2.32,2.75a.37.37,0,0,1,.08.51A.35.35,0,0,1,36.48,24.3Z"/><path class="cls-2" d="M36.48,29.55a.32.32,0,0,1-.14,0c-.39-.16-2.32-1-2.69-1.73A3.49,3.49,0,0,1,34,25a5.19,5.19,0,0,1,2.45-.87.37.37,0,0,1,.42.31.37.37,0,0,1-.31.41,5.27,5.27,0,0,0-2,.61,2.88,2.88,0,0,0-.23,2,6.43,6.43,0,0,0,2.3,1.37.36.36,0,0,1,.2.48A.35.35,0,0,1,36.48,29.55Z"/><path class="cls-2" d="M36,36.09H36a3.28,3.28,0,0,1-2.43-1.83,4.3,4.3,0,0,1,.14-3c.55-.87,2.52-1.21,2.75-1.24a.35.35,0,0,1,.41.3.35.35,0,0,1-.3.41,4.27,4.27,0,0,0-2.24.92,3.92,3.92,0,0,0-.13,2.29,2.68,2.68,0,0,0,1.89,1.47s.14-.09.23-.15a.36.36,0,1,1,.39.61A1.28,1.28,0,0,1,36,36.09Z"/><path class="cls-2" d="M37,42.09h0c-.73,0-2.46-.12-2.86-.78a3.91,3.91,0,0,1,1-4c.67-.43,2.32.21,3,.51l.11,0,.06.11a3.71,3.71,0,0,1,.43,2.5A2.21,2.21,0,0,1,37,42.08Zm-1.36-4.2a.49.49,0,0,0-.2,0h0a3.4,3.4,0,0,0-.72,3,4.66,4.66,0,0,0,2.21.43,1.52,1.52,0,0,0,1-1.09,2.9,2.9,0,0,0-.32-1.83A6.65,6.65,0,0,0,35.62,37.89Zm-.39-.28h0Z"/><path class="cls-3" d="M28.28,58.86a2.74,2.74,0,0,1-.12-.81V45.78A2.87,2.87,0,0,1,31,42.92H55.2a2.87,2.87,0,0,1,2.87,2.86V58.05a2.87,2.87,0,0,1-2.87,2.86H34.06"/><path class="cls-2" d="M55.2,61.28H34.06v-.73H55.2a2.5,2.5,0,0,0,2.5-2.5V45.78a2.5,2.5,0,0,0-2.5-2.5H31a2.5,2.5,0,0,0-2.5,2.5V58.05a2.37,2.37,0,0,0,.1.7l-.7.21a3.13,3.13,0,0,1-.13-.91V45.78A3.23,3.23,0,0,1,31,42.55H55.2a3.23,3.23,0,0,1,3.23,3.23V58.05A3.23,3.23,0,0,1,55.2,61.28Z"/><path class="cls-3" d="M36.56,51.65V48.82a3,3,0,0,1,3-3h6.29a3,3,0,0,1,3,3v6.3a3,3,0,0,1-3,3H39.53a3,3,0,0,1-2.07-.84"/><path class="cls-2" d="M45.82,58.45H39.53a3.29,3.29,0,0,1-2.32-.94l.5-.52a2.62,2.62,0,0,0,1.82.73h6.29a2.61,2.61,0,0,0,2.61-2.6v-6.3a2.61,2.61,0,0,0-2.61-2.61H39.53a2.61,2.61,0,0,0-2.61,2.61v2.83h-.73V48.82a3.34,3.34,0,0,1,3.34-3.33h6.29a3.34,3.34,0,0,1,3.34,3.33v6.3A3.34,3.34,0,0,1,45.82,58.45Z"/><circle class="cls-3" cx="53.48" cy="51.92" r="1.94"/><path class="cls-2" d="M53.48,54.22a2.3,2.3,0,1,1,2.3-2.3A2.3,2.3,0,0,1,53.48,54.22Zm0-3.88a1.58,1.58,0,1,0,0,3.15,1.58,1.58,0,0,0,0-3.15Z"/><path class="cls-3" d="M23.48,75.77c1.31-1.56,4.84-3.9,5.84-5.67.63-1.1.6-3.44,1.44-4.87,2.79-3.49,10-9.51,10-12.33,0-.71-1.33-1.93-2-2-3.53-.17-8.85,7.3-11.77,9.17"/><path class="cls-2" d="M23.2,75.53a22.92,22.92,0,0,1,2.45-2.26A16.8,16.8,0,0,0,29,69.92a7.18,7.18,0,0,0,.55-2,9.47,9.47,0,0,1,.88-2.88c.95-1.19,2.32-2.59,3.77-4.07C37,58.16,40.4,54.66,40.4,52.9c0-.48-1.16-1.57-1.7-1.6-2.1-.08-5.22,3.06-7.71,5.6a26.75,26.75,0,0,1-3.84,3.51.36.36,0,0,1-.39-.61,26.8,26.8,0,0,0,3.71-3.41c2.72-2.78,5.83-5.93,8.27-5.82.86,0,2.39,1.4,2.39,2.33,0,2.06-3.26,5.38-6.4,8.59-1.44,1.46-2.8,2.85-3.69,4a8.75,8.75,0,0,0-.76,2.6,7.82,7.82,0,0,1-.64,2.22,16.45,16.45,0,0,1-3.52,3.55A22.45,22.45,0,0,0,23.76,76"/><path class="cls-3" d="M28.16,46.61s-7.5,3.84-9.26,5.8c-3.07,3.42-1.49,11.88-4.08,17.06"/><path class="cls-2" d="M14.49,69.31C15.67,67,16,63.87,16.25,60.89c.34-3.5.66-6.81,2.38-8.72s9.06-5.73,9.37-5.88l.33.64c-.07,0-7.46,3.83-9.16,5.73C17.61,54.39,17.3,57.58,17,61c-.29,3.05-.6,6.2-1.84,8.68"/><path class="cls-3" d="M30.58,66a5.7,5.7,0,0,0,2.07.07,2.77,2.77,0,0,0,1.05-2.19c-.05-.26-.77-.66-.65-.84.37-.2,1.61.81,2.16.69.39-.08.89-.83,1-1.21a8.69,8.69,0,0,0,0-1.64"/><path class="cls-2" d="M32,66.55a9.14,9.14,0,0,1-1.51-.16l.13-.71a5.13,5.13,0,0,0,1.85.09A2.55,2.55,0,0,0,33.35,64l-.24-.21c-.24-.22-.61-.55-.36-.91l0-.07.08,0c.35-.19.78,0,1.33.3a2.47,2.47,0,0,0,.93.35,1.8,1.8,0,0,0,.7-.94,7.73,7.73,0,0,0,0-1.52l.73-.06a8,8,0,0,1,0,1.76c-.11.43-.68,1.35-1.26,1.47a2,2,0,0,1-1.24-.33.43.43,0,0,0,0,0,3.1,3.1,0,0,1-1.26,2.6A1.91,1.91,0,0,1,32,66.55Z"/><path class="cls-3" d="M39.9,35.28c3.44-3,6.88-2.92,10.31,0"/><path class="cls-2" d="M50.21,35.64a.43.43,0,0,1-.24-.08c-3.34-2.85-6.56-2.85-9.83,0a.37.37,0,1,1-.48-.55c3.54-3.07,7.17-3.07,10.79,0a.36.36,0,0,1,0,.51A.35.35,0,0,1,50.21,35.64Z"/><path class="cls-3" d="M41.86,37c2.15-1.72,4.36-1.64,6.61,0"/><path class="cls-2" d="M48.47,37.34a.33.33,0,0,1-.21-.07c-2.18-1.58-4.19-1.58-6.17,0a.36.36,0,1,1-.45-.57c2.23-1.78,4.6-1.79,7,0a.37.37,0,0,1,.08.51A.36.36,0,0,1,48.47,37.34Z"/><path class="cls-3" d="M43.71,39a1.78,1.78,0,0,1,2.87,0"/><path class="cls-2" d="M43.71,39.34a.35.35,0,0,1-.25-.1.36.36,0,0,1,0-.52,2.14,2.14,0,0,1,3.39,0,.36.36,0,0,1-.53.5,1.7,1.7,0,0,0-1.15-.62h0a1.77,1.77,0,0,0-1.19.63A.35.35,0,0,1,43.71,39.34Z"/></g></g></svg>