<svg xmlns="http://www.w3.org/2000/svg" viewBox="0 0 75.7 75.7"><defs><style>.cls-1{fill:#1fb0c1;}.cls-2{fill:#fff;}</style></defs><title>Ativo 9</title><g id="Camada_2" data-name="Camada 2"><g id="Camada_1-2" data-name="Camada 1"><circle class="cls-1" cx="37.85" cy="37.85" r="37.85"/><path class="cls-2" d="M45.53,18.12a1.5,1.5,0,0,1,1.5,1.5V32.1a1.5,1.5,0,0,1-1.5,1.5h-4.3v5L35.11,34l-.53-.4H21a1.5,1.5,0,0,1-1.49-1.5V19.62A1.5,1.5,0,0,1,21,18.12h24.5m0-2H21a3.5,3.5,0,0,0-3.49,3.5V32.1A3.5,3.5,0,0,0,21,35.6H33.91l9.32,7v-7h2.3A3.5,3.5,0,0,0,49,32.1V19.62a3.5,3.5,0,0,0-3.5-3.5Z"/><path class="cls-2" d="M25.63,40h9.43l9.84,7.2V40h3.51a2.8,2.8,0,0,0,2.81-2.8V31.5h4.12a3.35,3.35,0,0,1,3.34,3.34V51.16a3.35,3.35,0,0,1-3.34,3.34H40.13l-7.66,6.73V54.6H29a3.33,3.33,0,0,1-3.34-3.34Z"/></g></g></svg>