<svg xmlns="http://www.w3.org/2000/svg" viewBox="0 0 75.7 75.7"><defs><style>.cls-1{fill:#1fb0c1;}.cls-2{fill:#fff;}</style></defs><title>Ativo 14</title><g id="Camada_2" data-name="Camada 2"><g id="Camada_1-2" data-name="Camada 1"><circle class="cls-1" cx="37.85" cy="37.85" r="37.85"/><path class="cls-2" d="M39.48,61.08v-7A16,16,0,0,0,55.39,38.36l-1.87-.19,5.58-4.41,5.22,4.41-1.94.39A22.93,22.93,0,0,1,39.48,61.08Z"/><path class="cls-2" d="M41.91,16l-1.34,6.88A16,16,0,0,0,22,35.24l1.79.54-6.32,3.27-4.28-5.33h2A22.93,22.93,0,0,1,41.91,16Z"/><path class="cls-2" d="M45.09,24.56a1,1,0,0,1-.45-1.89l8.46-4.32a1,1,0,0,1,1.34.43A1,1,0,0,1,54,20.13l-8.46,4.32A1.07,1.07,0,0,1,45.09,24.56Z"/><path class="cls-2" d="M51.55,26.59a1,1,0,0,1-.88-.53l-4.46-8.39A1,1,0,0,1,48,16.73l4.45,8.39a1,1,0,0,1-.88,1.47Z"/><path class="cls-2" d="M30.85,61a4.33,4.33,0,1,1,4.33-4.33A4.33,4.33,0,0,1,30.85,61Zm0-6.65a2.33,2.33,0,1,0,2.33,2.32A2.32,2.32,0,0,0,30.85,54.32Z"/></g></g></svg>