<svg xmlns="http://www.w3.org/2000/svg" viewBox="0 0 81.96 81.96"><defs><style>.cls-1{fill:#1fb0c1;stroke:#fff;stroke-miterlimit:10;}.cls-2{fill:#fff;}</style></defs><title>Ativo 6</title><g id="Camada_2" data-name="Camada 2"><g id="Camada_1-2" data-name="Camada 1"><circle class="cls-1" cx="40.98" cy="40.98" r="40.48"/><path class="cls-2" d="M61.27,43H35l.84-.91H61.27a3.12,3.12,0,0,0,3.11-3.12V23.66a3.12,3.12,0,0,0-3.11-3.12H31.18a3.12,3.12,0,0,0-3.12,3.12V38.92a2.89,2.89,0,0,0,.13.88l-.87.26a4,4,0,0,1-.16-1.14V23.66a4,4,0,0,1,4-4H61.27a4,4,0,0,1,4,4V38.92A4,4,0,0,1,61.27,43Z"/><path class="cls-2" d="M49.59,39.43H41.75a3.81,3.81,0,0,1-2.63-1l.63-.65a2.91,2.91,0,0,0,2,.71h7.84a3.25,3.25,0,0,0,3.25-3.24V27.44a3.25,3.25,0,0,0-3.25-3.24H41.75a3.24,3.24,0,0,0-3.24,3.24V31H37.6V27.44a4.15,4.15,0,0,1,4.15-4.15h7.84a4.15,4.15,0,0,1,4.15,4.15v7.84A4.15,4.15,0,0,1,49.59,39.43Z"/><path class="cls-2" d="M59.12,34.16A2.87,2.87,0,1,1,62,31.3,2.86,2.86,0,0,1,59.12,34.16Zm0-4.82a2,2,0,1,0,2,2A2,2,0,0,0,59.12,29.34Z"/><path class="cls-2" d="M21.43,60.69a28.68,28.68,0,0,1,3.05-2.81,21,21,0,0,0,4.18-4.17,9.31,9.31,0,0,0,.69-2.49,11.57,11.57,0,0,1,1.1-3.58c1.17-1.48,2.88-3.22,4.68-5.07,3.44-3.5,7.71-7.86,7.71-10,0-.6-1.44-2-2.11-2-2.62-.11-6.51,3.81-9.6,7a34.67,34.67,0,0,1-4.78,4.37.46.46,0,0,1-.63-.14.45.45,0,0,1,.14-.62,33.81,33.81,0,0,0,4.62-4.25c3.39-3.46,7.25-7.38,10.29-7.24,1.08.05,3,1.73,3,2.9,0,2.56-4,6.69-8,10.69C34,45,32.3,46.76,31.19,48.15a11.33,11.33,0,0,0-1,3.25,9.75,9.75,0,0,1-.79,2.76c-.78,1.36-2.61,2.91-4.38,4.41a26.82,26.82,0,0,0-2.94,2.71"/><path class="cls-2" d="M10.59,53c1.47-2.94,1.84-6.78,2.19-10.49.42-4.36.82-8.47,3-10.85S27,24.48,27.4,24.28l.42.81c-.1.05-9.3,4.77-11.41,7.12-1.94,2.16-2.32,6.13-2.72,10.34-.37,3.79-.75,7.71-2.29,10.8"/><path class="cls-2" d="M32.41,49.51a11.56,11.56,0,0,1-1.88-.2l.17-.89a6.58,6.58,0,0,0,2.29.12,3.18,3.18,0,0,0,1.07-2.22s-.19-.18-.29-.27c-.31-.27-.76-.68-.45-1.13l.06-.09.1,0c.43-.24,1,0,1.66.38a3.62,3.62,0,0,0,1.15.43,2.34,2.34,0,0,0,.88-1.17,9.92,9.92,0,0,0,0-1.89l.9-.07a10.59,10.59,0,0,1,0,2.18c-.14.54-.85,1.68-1.57,1.84a2.6,2.6,0,0,1-1.55-.42.64.64,0,0,0,0,.07,3.88,3.88,0,0,1-1.56,3.23A2.49,2.49,0,0,1,32.41,49.51Z"/></g></g></svg>