<svg xmlns="http://www.w3.org/2000/svg" viewBox="0 0 81.96 81.96"><defs><style>.cls-1,.cls-2{fill:#fff;}.cls-1{stroke:#1fb0c1;stroke-miterlimit:10;}.cls-3{fill:#1fb0c1;}</style></defs><title>Ativo 4</title><g id="Camada_2" data-name="Camada 2"><g id="Camada_1-2" data-name="Camada 1"><circle class="cls-1" cx="40.98" cy="40.98" r="40.48"/><path class="cls-2" d="M19.52,41.23a3.1,3.1,0,0,1-.11-.81V28.15a2.86,2.86,0,0,1,2.86-2.86H46.44a2.86,2.86,0,0,1,2.87,2.86V40.42a2.86,2.86,0,0,1-2.87,2.86H25.31"/><path class="cls-3" d="M46.44,43.65H25.31v-.73H46.44A2.5,2.5,0,0,0,49,40.42V28.15a2.5,2.5,0,0,0-2.51-2.5H22.27a2.5,2.5,0,0,0-2.5,2.5V40.42a2.75,2.75,0,0,0,.1.7l-.7.21a3.51,3.51,0,0,1-.13-.91V28.15a3.23,3.23,0,0,1,3.23-3.23H46.44a3.24,3.24,0,0,1,3.24,3.23V40.42A3.24,3.24,0,0,1,46.44,43.65Z"/><path class="cls-2" d="M27.8,34V31.19a3,3,0,0,1,3-3h6.3a3,3,0,0,1,3,3v6.3a3,3,0,0,1-3,3h-6.3a3,3,0,0,1-2.07-.84"/><path class="cls-3" d="M37.07,40.82h-6.3a3.31,3.31,0,0,1-2.32-.94l.51-.52a2.6,2.6,0,0,0,1.81.73h6.3a2.61,2.61,0,0,0,2.6-2.6v-6.3a2.61,2.61,0,0,0-2.6-2.61h-6.3a2.61,2.61,0,0,0-2.61,2.61V34h-.72V31.19a3.33,3.33,0,0,1,3.33-3.33h6.3a3.33,3.33,0,0,1,3.33,3.33v6.3A3.33,3.33,0,0,1,37.07,40.82Z"/><circle class="cls-2" cx="44.72" cy="34.29" r="1.94"/><path class="cls-3" d="M44.72,36.59A2.3,2.3,0,1,1,47,34.29,2.3,2.3,0,0,1,44.72,36.59Zm0-3.88a1.58,1.58,0,1,0,1.58,1.58A1.58,1.58,0,0,0,44.72,32.71Z"/><path class="cls-2" d="M14.72,58.14c1.32-1.56,4.84-3.9,5.85-5.67.62-1.1.59-3.44,1.43-4.87,2.79-3.5,10-9.51,10-12.33,0-.71-1.33-1.93-2-2-3.54-.17-8.86,7.3-11.77,9.17"/><path class="cls-3" d="M14.45,57.9a21.13,21.13,0,0,1,2.45-2.26,16.72,16.72,0,0,0,3.35-3.35,7.51,7.51,0,0,0,.56-2,9,9,0,0,1,.88-2.88c.94-1.19,2.31-2.59,3.76-4.07,2.76-2.82,6.19-6.32,6.19-8.08,0-.48-1.15-1.58-1.69-1.6-2.11-.08-5.23,3.06-7.72,5.6a27.94,27.94,0,0,1-3.83,3.51.37.37,0,0,1-.51-.11.36.36,0,0,1,.11-.5,26.8,26.8,0,0,0,3.71-3.41C24.44,36,27.54,32.83,30,32.94c.87,0,2.39,1.39,2.39,2.33,0,2.06-3.25,5.38-6.4,8.59-1.43,1.46-2.79,2.85-3.68,4a9.06,9.06,0,0,0-.77,2.6,7.51,7.51,0,0,1-.64,2.22,16.84,16.84,0,0,1-3.51,3.55A22.69,22.69,0,0,0,15,58.37"/><path class="cls-2" d="M19.41,29s-7.51,3.84-9.27,5.8C7.07,38.2,8.66,46.66,6.06,51.84"/><path class="cls-3" d="M5.74,51.65c1.18-2.35,1.47-5.44,1.76-8.42.34-3.5.65-6.8,2.37-8.72s9.06-5.72,9.37-5.88l.33.65c-.07,0-7.46,3.83-9.16,5.72-1.56,1.73-1.86,4.92-2.19,8.3-.29,3.05-.59,6.2-1.83,8.68"/><path class="cls-2" d="M21.82,48.4a5.7,5.7,0,0,0,2.07.07A2.78,2.78,0,0,0,25,46.28c-.06-.26-.78-.66-.65-.84.36-.2,1.6.81,2.16.69.38-.08.89-.83,1-1.21a8.69,8.69,0,0,0,0-1.64"/><path class="cls-3" d="M23.26,48.92a9,9,0,0,1-1.5-.16l.13-.71a5.07,5.07,0,0,0,1.84.09,2.55,2.55,0,0,0,.86-1.79l-.24-.21c-.24-.22-.6-.55-.35-.91l.05-.07.07,0c.35-.19.79,0,1.34.3a2.43,2.43,0,0,0,.92.35,1.91,1.91,0,0,0,.71-.94,7.73,7.73,0,0,0,0-1.52l.72-.06a8,8,0,0,1,0,1.76c-.11.43-.68,1.35-1.25,1.47a2,2,0,0,1-1.25-.33.11.11,0,0,1,0,.05,3.09,3.09,0,0,1-1.25,2.6A2,2,0,0,1,23.26,48.92Z"/><path class="cls-3" d="M63.09,47.71,59.53,47c-.58.08-4.57.58-6,.12,0,0-3-1-3.39-2.3-.21-.82.88-2.06,1.5-2.31a5.89,5.89,0,0,1,2.92-.13A11.43,11.43,0,0,0,59,42.2c1.91-.49,5.88-1.53,7.9-1.24a15.1,15.1,0,0,1,4,1.65A17.65,17.65,0,0,0,74,44a6,6,0,0,0,1.2,0l.06.75a7,7,0,0,1-1.44,0,18.48,18.48,0,0,1-3.25-1.42,14.68,14.68,0,0,0-3.8-1.58c-1.86-.25-5.74.75-7.6,1.23a12.33,12.33,0,0,1-4.7.17,5.39,5.39,0,0,0-2.54.08c-.44.18-1.14,1.13-1.06,1.43.16.62,1.78,1.43,2.88,1.78s4.56,0,5.77-.16h.07l3.68.76Z"/><path class="cls-3" d="M49.25,51.31l-1.7-.79a1.13,1.13,0,0,1-.63-.49,7.25,7.25,0,0,0-1-1.24,3.42,3.42,0,0,1-.6-.69.49.49,0,0,1,0-.41A1.56,1.56,0,0,1,46,47a6.22,6.22,0,0,1,2.35,0l.14.05a5.28,5.28,0,0,1,1.75,1.42,5.9,5.9,0,0,1,3.23.79,12.7,12.7,0,0,1,3.21.19l.46-.32A24.77,24.77,0,0,1,60.54,47l.31.68a24.63,24.63,0,0,0-3.34,2l-.71.49-.15,0A12.06,12.06,0,0,0,53.37,50h-.13l-.11-.07A5.23,5.23,0,0,0,50,49.2l-.24,0L49.65,49a4,4,0,0,0-1.52-1.28,5.8,5.8,0,0,0-1.86,0,1.12,1.12,0,0,0-.23.18l.39.41a7.39,7.39,0,0,1,1.16,1.42.72.72,0,0,0,.25.14l1.72.8Z"/><path class="cls-3" d="M51.18,51.86v-.23a13.31,13.31,0,0,0-2.5-.29,10.11,10.11,0,0,1-1.81-.22l-.12,0-.08-.1a11.29,11.29,0,0,0-1.85-1.63,7.87,7.87,0,0,0-3-.51v-.75a8.32,8.32,0,0,1,3.44.63,11.19,11.19,0,0,1,1.92,1.67,9.6,9.6,0,0,0,1.48.19,12.08,12.08,0,0,1,3,.38A14.11,14.11,0,0,1,55,50.59v.75a13.33,13.33,0,0,0-3.32.39Z"/><path class="cls-3" d="M58.93,57.43h-.09c-1.63-.06-7.14-.22-9.86-.06a3.84,3.84,0,0,1-2.28-.58c-1.92-1.21-5.08-3.72-5.22-3.82-.94-.74-4-3.25-3.59-4.66a1,1,0,0,1,.6-.61,4.55,4.55,0,0,1,3,.15,20.28,20.28,0,0,1,3,2.72,12.44,12.44,0,0,1,4.31,1.72,18.39,18.39,0,0,1,5.37-1.12,13.52,13.52,0,0,1,5.17-1.84,7.78,7.78,0,0,1,1.75-2.59l.55.5a6.43,6.43,0,0,0-1.65,2.53l-.06.29h-.29a12,12,0,0,0-5.19,1.81l-.18,0a17.64,17.64,0,0,0-5.41,1.14l-.18.06L48.61,53a11.66,11.66,0,0,0-4.3-1.73l-.12,0-.08-.09a21.3,21.3,0,0,0-2.94-2.66,4,4,0,0,0-2.38-.13.41.41,0,0,0-.18.14c-.18.64,1.59,2.5,3.34,3.86,0,0,3.27,2.59,5.15,3.77a3.06,3.06,0,0,0,1.83.48c2.76-.18,8.3,0,9.93,0a2.08,2.08,0,0,0,.74-.11l9.3-3.17L75.52,52l.15.74L69.1,54.12l-9.26,3.16A2.8,2.8,0,0,1,58.93,57.43Z"/></g></g></svg>