<svg xmlns="http://www.w3.org/2000/svg" viewBox="0 0 75.7 75.7"><defs><style>.cls-1{fill:#1fb0c1;}.cls-2{fill:#fff;}</style></defs><title>Ativo 10</title><g id="Camada_2" data-name="Camada 2"><g id="Camada_1-2" data-name="Camada 1"><circle class="cls-1" cx="37.85" cy="37.85" r="37.85"/><path class="cls-2" d="M57,52.57H19.91a5.73,5.73,0,0,1-5.72-5.72v-18a5.73,5.73,0,0,1,5.72-5.72H57a5.73,5.73,0,0,1,5.72,5.72v18A5.73,5.73,0,0,1,57,52.57ZM19.91,24.13a4.73,4.73,0,0,0-4.72,4.72v18a4.73,4.73,0,0,0,4.72,4.72H57a4.73,4.73,0,0,0,4.72-4.72v-18A4.73,4.73,0,0,0,57,24.13Z"/><path class="cls-2" d="M44.12,46.6H32.78a3.08,3.08,0,0,1-3.08-3.08V32.18a3.08,3.08,0,0,1,3.08-3.08H44.12a3.08,3.08,0,0,1,3.08,3.08V43.52A3.08,3.08,0,0,1,44.12,46.6ZM32.78,30.1a2.08,2.08,0,0,0-2.08,2.08V43.52a2.08,2.08,0,0,0,2.08,2.08H44.12a2.08,2.08,0,0,0,2.08-2.08V32.18a2.08,2.08,0,0,0-2.08-2.08Z"/><circle class="cls-2" cx="54.04" cy="37.71" r="2.82"/><path class="cls-2" d="M54,41a3.32,3.32,0,1,1,3.32-3.33A3.32,3.32,0,0,1,54,41Zm0-5.64a2.32,2.32,0,1,0,2.32,2.31A2.32,2.32,0,0,0,54,35.39Z"/><circle class="cls-2" cx="22.9" cy="37.71" r="1.49"/><path class="cls-2" d="M22.9,39.7a2,2,0,1,1,2-2A2,2,0,0,1,22.9,39.7Zm0-3a1,1,0,0,0-1,1,1,1,0,1,0,2,0A1,1,0,0,0,22.9,36.72Z"/><path class="cls-2" d="M44.13,36.82a.43.43,0,0,1-.24-.08c-3.34-2.85-6.56-2.85-9.83,0a.37.37,0,0,1-.52,0,.38.38,0,0,1,0-.52c3.54-3.07,7.17-3.07,10.79,0a.36.36,0,0,1,0,.51A.35.35,0,0,1,44.13,36.82Z"/><path class="cls-2" d="M42.39,38.52a.33.33,0,0,1-.21-.07C40,36.87,38,36.87,36,38.44a.36.36,0,0,1-.51,0,.37.37,0,0,1,.06-.52c2.23-1.78,4.6-1.78,7,0a.38.38,0,0,1,.08.51A.37.37,0,0,1,42.39,38.52Z"/><path class="cls-2" d="M37.63,40.52a.39.39,0,0,1-.26-.1.37.37,0,0,1,0-.52,2.37,2.37,0,0,1,1.73-.83,2.35,2.35,0,0,1,1.67.84.36.36,0,0,1-.53.5,1.75,1.75,0,0,0-1.15-.62h0a1.73,1.73,0,0,0-1.19.63A.35.35,0,0,1,37.63,40.52Z"/></g></g></svg>