<svg height="512pt" viewBox="0 -67 512.0013 512" width="512pt" xmlns="http://www.w3.org/2000/svg"><path d="m386.617188 253.910156c-10.175782 0-19.742188-3.949218-26.957032-11.125-13.8125-13.796875-29.820312-24.519531-47.597656-31.878906-17.644531-7.300781-36.519531-11.007812-56.105469-11.007812-19.574219 0-38.429687 3.699218-56.050781 10.988281-17.773438 7.347656-33.769531 18.050781-47.554688 31.804687-.003906 0-.007812.003906-.007812.007813-7.21875 7.175781-16.789062 11.125-26.960938 11.125-.035156 0-.070312 0-.109374 0-10.210938-.03125-19.800782-4.035157-27-11.277344-7.203126-7.238281-11.152344-16.851563-11.125-27.0625.027343-10.214844 4.03125-19.804687 11.273437-27.007813 20.824219-20.777343 45.183594-37.027343 72.390625-48.28125 27.179688-11.242187 55.824219-16.941406 85.144531-16.941406 29.34375 0 58.007813 5.707032 85.203125 16.964844 27.238282 11.28125 51.605469 27.550781 72.433594 48.359375 14.933594 14.855469 15 39.109375.136719 54.058594-7.203125 7.242187-16.792969 11.246093-27.003907 11.273437-.039062 0-.074218 0-.109374 0zm-130.660157-69.03125c21.566407 0 42.375 4.089844 61.851563 12.152344 19.609375 8.117188 37.253906 19.933594 52.453125 35.117188 4.367187 4.34375 10.179687 6.742187 16.355469 6.742187h.066406c6.199218-.015625 12.023437-2.449219 16.394531-6.84375 9.027344-9.078125 8.984375-23.804687-.089844-32.832031-19.4375-19.421875-42.167969-34.597656-67.574219-45.117188-25.363281-10.5-52.097656-15.824218-79.457031-15.824218-27.339843 0-54.054687 5.316406-79.402343 15.800781-25.378907 10.496093-48.101563 25.652343-67.535157 45.042969-4.40625 4.382812-6.835937 10.207031-6.851562 16.40625-.019531 6.199218 2.378906 12.035156 6.753906 16.433593 4.371094 4.398438 10.195313 6.828125 16.394531 6.847657h.066406c6.175782 0 11.984376-2.398438 16.367188-6.753907 15.183594-15.148437 32.816406-26.9375 52.414062-35.042969 19.449219-8.046874 40.242188-12.128906 61.792969-12.128906zm-108.910156 52.492188h.011719zm326.71875-70.628906c-9.757813.003906-19.511719-3.699219-26.960937-11.105469-25.351563-25.339844-54.828126-45.066407-87.617188-58.648438-32.59375-13.496093-67.324219-20.34375-103.230469-20.34375-9.851562 0-19.769531.53125-29.476562 1.574219-4.128907.449219-7.828125-2.539062-8.269531-6.664062-.441407-4.125 2.539062-7.824219 6.664062-8.269532 10.242188-1.101562 20.695312-1.660156 31.082031-1.660156 37.886719 0 74.550781 7.230469 108.980469 21.488281 34.617188 14.339844 65.730469 35.160157 92.472656 61.890625 9.0625 9.011719 23.792969 8.96875 32.816406-.105468 4.371094-4.398438 6.773438-10.234376 6.753907-16.4375-.019531-6.199219-2.449219-12.023438-6.847657-16.394532-30.980468-30.96875-67.175781-55.148437-107.589843-71.886718-40.316407-16.695313-82.90625-25.15625-126.585938-25.15625-43.664062 0-86.234375 8.457031-126.527343 25.132812-40.394532 16.71875-76.578126 40.878906-107.554688 71.8125-4.40625 4.386719-6.839844 10.207031-6.855469 16.410156-.019531 6.199219 2.382813 12.035156 6.753907 16.433594 4.371093 4.394531 10.195312 6.824219 16.394531 6.84375h.066406c6.179687 0 11.988281-2.398438 16.371094-6.753906 26.71875-26.683594 57.820312-47.484375 92.425781-61.8125 14.804688-6.128906 30.261719-11.015625 45.945312-14.535156 4.042969-.902344 8.0625 1.636718 8.972657 5.683593.90625 4.046875-1.640625 8.0625-5.6875 8.972657-14.84375 3.332031-29.476563 7.957031-43.484375 13.753906-32.777344 13.570312-62.242188 33.277344-87.570313 58.574218-7.253906 7.214844-16.839843 11.148438-27.078125 11.136719-10.214844-.03125-19.804687-4.03125-27.007812-11.273437-7.199219-7.242188-11.1484378-16.855469-11.121094-27.066406.0273438-10.214844 4.03125-19.804688 11.273438-27.003907 32.363281-32.324219 70.191406-57.578125 112.414062-75.054687 42.121094-17.433594 86.625-26.277344 132.269531-26.277344 45.664063 0 90.1875 8.847656 132.332031 26.300781 42.246094 17.496094 80.082032 42.773438 112.449219 75.128907 7.230469 7.1875 11.234375 16.777343 11.261719 26.988281.027344 10.214843-3.921875 19.828125-11.125 27.066406-7.457031 7.503906-17.285156 11.257813-27.109375 11.257813zm0 0"/><path d="m255.957031 377.742188c-38.121093 0-69.136719-31.011719-69.136719-69.132813s31.015626-69.136719 69.136719-69.136719c31.167969 0 58.617188 21.035156 66.753907 51.152344 1.082031 4.003906-1.285157 8.125-5.289063 9.207031s-8.128906-1.285156-9.207031-5.289062c-6.375-23.582031-27.863282-40.050781-52.257813-40.050781-29.839843 0-54.117187 24.277343-54.117187 54.117187 0 29.835937 24.277344 54.113281 54.117187 54.113281 24.414063 0 45.90625-16.484375 52.265625-40.085937 1.082032-4.003907 5.207032-6.375 9.207032-5.296875 4.003906 1.078125 6.375 5.199218 5.296874 9.203125-8.121093 30.144531-35.578124 51.199219-66.769531 51.199219zm0 0"/></svg>