<svg xmlns="http://www.w3.org/2000/svg" viewBox="0 0 27 27"><path d="M1 1h7v7h-7zM9 1h2v1h1v1h-2v1h-1zM13 1h1v1h-1zM15 1h1v1h-1zM17 1h1v1h-1zM19 1h7v7h-7zM2 2v5h5v-5zM20 2v5h5v-5zM3 3h3v3h-3zM12 3h3v1h1v-1h2v1h-1v1h-3v-1h-2zM21 3h3v3h-3zM10 4h2v4h-1v-1h-1v-1h1v-1h-1zM9 5h1v1h-1zM13 5h1v3h1v-2h1v3h-3v1h-1v-2h1zM17 6h1v2h-1zM9 7h1v1h-1zM1 9h1v1h-1zM4 9h6v1h2v1h-2v1h-1v-1h-1v-1h-1v1h1v1h-1v1h-1v-1h-1v-2h-1zM18 9h1v2h2v-2h1v1h1v-1h3v1h-1v1h-2v1h2v-1h1v3h-1v-1h-4v-1h-2v1h1v1h-3v-1h1v-2h-1v2h-1v-1h-2v-1h2v-1h2zM2 10h2v1h-1v1h2v2h-1v-1h-3v-1h1zM13 10h1v1h-1zM12 11h1v2h-1zM10 12h1v1h-1zM7 13h1v1h-1zM13 13h1v1h-1zM15 13h1v1h-1zM1 14h3v2h1v1h-1v1h-1v-2h-1v2h-1zM9 14h3v1h2v1h-1v1h-1v-1h-1v4h-1v1h1v1h-1v1h-1v-5h1v-1h-1v1h-3v-1h2v-1h-3v-1h4zM16 14h1v1h2v1h-1v1h3v-1h1v3h1v1h-1v1h1v2h-1v-1h-1v1h-2v-1h-3v-1h1v-2h-1v1h-1v-2h-1v2h1v1h-2v-1h-1v-2h1v-1h2v-1h1v2h1v-2h-1zM20 14h2v1h-2zM24 14h1v1h1v2h-1v-1h-1v1h1v2h-1v-1h-1v-2h-1v-1h2zM18 18v3h3v-3zM1 19h7v7h-7zM19 19h1v1h-1zM25 19h1v2h-2v-1h1zM2 20v5h5v-5zM11 20h1v1h-1zM3 21h3v3h-3zM12 22h2v3h-1v1h-4v-1h1v-1h1v1h1zM24 22h2v4h-1v-1h-2v-2h1zM15 23h1v1h-1zM21 23h1v2h-2v1h-1v-1h-1v-1h3zM16 24h1v1h1v1h-3v-1h1zM22 25h1v1h-1z"/></svg>